<?xml version="1.0" standalone="no"?>
<!DOCTYPE svg PUBLIC "-//W3C//DTD SVG 20010904//EN"
 "http://www.w3.org/TR/2001/REC-SVG-20010904/DTD/svg10.dtd">
<svg version="1.0" xmlns="http://www.w3.org/2000/svg"
 width="2688.000000pt" height="2688.000000pt" viewBox="0 0 2688.000000 2688.000000"
 preserveAspectRatio="xMidYMid meet">
<metadata>
Created by potrace 1.14, written by Peter Selinger 2001-2017
</metadata>
<g transform="translate(0.000000,2688.000000) scale(0.100000,-0.100000)"
fill="#000000" stroke="none">
<path d="M23150 17941 c0 -144 3 -261 8 -261 4 -1 78 -3 165 -5 87 -2 191 -6
230 -10 112 -9 179 -16 217 -21 19 -3 55 -7 80 -9 25 -2 59 -7 75 -10 17 -4
46 -8 65 -10 19 -2 37 -5 40 -6 3 -1 10 -2 15 -4 6 -1 12 -3 15 -4 3 -2 16 -4
30 -6 52 -6 105 -17 218 -46 161 -40 268 -72 307 -89 11 -5 41 -16 67 -24 111
-36 480 -210 498 -235 3 -4 28 -20 55 -36 53 -30 248 -174 302 -223 86 -77
113 -104 178 -173 110 -116 295 -361 295 -389 0 -6 5 -10 12 -10 6 0 8 -3 5
-7 -4 -3 -1 -13 7 -22 24 -27 106 -188 99 -195 -4 -3 -2 -6 4 -6 6 0 13 -8 16
-17 3 -10 20 -52 37 -93 50 -118 89 -228 82 -234 -3 -3 -1 -6 4 -6 5 0 11 -12
12 -27 1 -15 8 -30 15 -35 6 -4 9 -8 5 -8 -4 0 0 -22 8 -49 19 -64 65 -266 70
-311 3 -19 7 -46 10 -60 3 -14 8 -41 10 -60 2 -19 6 -48 8 -65 2 -16 7 -64 11
-105 4 -41 9 -91 11 -110 4 -28 12 -223 14 -327 l0 -23 190 0 190 0 -5 163
c-4 180 -13 339 -21 377 -3 14 -7 47 -10 73 -2 26 -6 62 -8 80 -9 61 -26 172
-31 197 -2 14 -12 61 -20 105 -9 44 -22 103 -30 130 -7 28 -16 64 -18 80 -3
17 -9 41 -15 55 -5 14 -9 27 -9 30 1 7 -52 181 -63 205 -4 11 -13 36 -20 55
-64 186 -268 603 -302 618 -5 2 -8 8 -8 13 0 27 -214 310 -320 423 -133 141
-229 227 -395 351 -201 150 -467 296 -720 395 -50 20 -90 35 -95 36 -3 0 -12
3 -20 6 -21 8 -132 43 -210 67 -62 18 -137 37 -190 48 -41 8 -55 11 -57 13 -5
4 -15 6 -73 14 -30 5 -59 11 -65 14 -5 3 -16 7 -25 7 -37 4 -127 18 -145 23
-11 3 -197 7 -412 9 l-393 4 0 -260z"/>
<path d="M23152 16947 l3 -241 125 -2 c179 -3 416 -21 495 -37 11 -3 42 -8 68
-11 27 -4 56 -9 65 -11 107 -22 176 -38 222 -51 30 -8 60 -16 65 -18 111 -28
391 -147 438 -186 10 -8 21 -15 25 -15 6 0 79 -48 117 -77 63 -47 163 -139
215 -198 58 -64 87 -103 177 -241 13 -19 23 -42 23 -51 0 -9 4 -18 8 -20 35
-14 161 -384 176 -516 2 -12 5 -25 9 -28 3 -3 3 -12 0 -20 -3 -8 -1 -14 3 -14
5 0 9 -12 10 -27 0 -16 4 -53 8 -83 5 -30 10 -66 12 -80 5 -44 16 -232 18
-320 l2 -85 239 0 240 0 -2 105 c-3 157 -16 346 -29 420 -3 19 -8 51 -10 70
-38 312 -178 720 -326 943 -21 32 -38 60 -38 63 0 2 -6 12 -14 21 -8 10 -35
45 -59 78 -25 33 -77 94 -116 135 -39 41 -71 78 -71 82 0 4 -4 8 -9 8 -6 0
-30 18 -54 40 -65 60 -173 141 -247 185 -36 22 -67 42 -70 45 -11 11 -205 105
-212 103 -5 -2 -8 2 -8 7 0 5 -3 9 -7 8 -5 -1 -21 5 -38 12 -16 7 -32 14 -35
15 -25 8 -48 18 -62 26 -10 5 -26 9 -36 9 -10 0 -22 4 -27 8 -10 9 -86 32 -95
30 -3 -1 -15 4 -26 10 -12 6 -34 14 -50 17 -16 3 -54 12 -84 20 -30 8 -65 15
-77 15 -13 0 -23 3 -23 8 0 4 -13 8 -28 9 -15 1 -39 4 -52 7 -63 13 -123 23
-195 31 -27 4 -61 8 -75 11 -23 4 -66 7 -235 19 -33 2 -60 5 -60 5 0 1 -66 3
-148 5 l-147 3 2 -241z"/>
<path d="M21358 16455 c-2 -2 -62 -6 -133 -9 -72 -2 -130 -5 -130 -6 0 -2 -18
-3 -40 -5 -47 -2 -173 -14 -230 -21 -22 -3 -60 -7 -85 -9 -25 -2 -45 -4 -45
-5 0 -1 -11 -3 -25 -5 -14 -1 -38 -5 -55 -8 -16 -3 -50 -9 -75 -13 -63 -9 -81
-12 -110 -18 -14 -3 -36 -7 -50 -10 -14 -2 -59 -12 -100 -21 -41 -10 -84 -18
-95 -20 -11 -2 -32 -8 -47 -14 -16 -6 -28 -8 -28 -6 0 3 -15 -1 -32 -8 -18 -8
-37 -15 -43 -15 -56 -9 -324 -104 -435 -154 -145 -66 -249 -123 -334 -182 -32
-23 -68 -48 -80 -56 -60 -41 -213 -184 -256 -240 -14 -17 -37 -46 -52 -63 -14
-17 -24 -35 -22 -39 3 -4 1 -8 -5 -8 -10 0 -19 -15 -87 -150 -24 -47 -44 -93
-44 -102 0 -10 -4 -18 -8 -18 -5 0 -9 -6 -9 -12 -1 -7 -8 -40 -17 -73 -27 -94
-37 -151 -42 -225 -1 -25 -3 -46 -4 -47 -6 -8 -5 -30 2 -45 4 -9 4 -19 0 -22
-11 -7 -4 -182 12 -301 15 -110 75 -323 98 -352 6 -7 7 -13 3 -13 -5 0 -1 -8
8 -17 8 -10 16 -21 16 -25 2 -11 35 -82 42 -88 3 -3 16 -25 30 -50 13 -25 32
-52 42 -61 9 -9 17 -19 17 -23 0 -10 39 -55 126 -143 79 -82 257 -223 282
-223 6 0 12 -3 12 -8 0 -4 21 -18 48 -32 26 -13 49 -27 52 -30 6 -6 61 -33
160 -78 66 -30 252 -102 280 -107 8 -2 16 -4 18 -5 1 -2 7 -4 12 -5 6 -1 11
-3 13 -5 1 -1 10 -3 20 -6 29 -7 41 -11 57 -17 8 -4 42 -13 75 -21 33 -8 97
-24 142 -35 45 -11 92 -22 105 -25 136 -28 188 -38 213 -42 38 -7 62 -11 105
-18 19 -3 51 -8 70 -10 19 -3 46 -7 60 -10 14 -2 50 -7 80 -11 30 -3 69 -8 85
-11 17 -2 50 -6 75 -8 25 -2 63 -7 85 -10 84 -11 314 -29 392 -30 35 -1 63 -3
63 -6 0 -3 26 -6 58 -6 53 -1 152 -7 352 -20 47 -3 112 -7 145 -9 33 -2 60 -4
60 -5 0 -1 25 -3 55 -5 30 -1 91 -6 135 -10 44 -3 103 -8 130 -11 56 -4 118
-11 185 -19 25 -3 65 -7 90 -10 25 -2 62 -6 83 -9 20 -3 52 -8 70 -11 199 -30
365 -88 421 -149 28 -29 61 -92 73 -139 3 -12 6 -60 7 -106 2 -118 -30 -181
-132 -263 -66 -53 -302 -125 -472 -143 -19 -2 -35 -4 -35 -5 0 -7 -132 -18
-285 -25 -52 -2 -95 -5 -95 -5 0 -1 -90 -3 -200 -5 -110 -2 -202 -4 -205 -5
-3 -1 -9 -1 -15 0 -5 1 -77 4 -160 6 -171 4 -282 11 -445 28 -64 7 -172 23
-215 33 -11 2 -29 6 -40 7 -50 8 -214 54 -265 73 -8 4 -18 5 -22 5 -5 -1 -8 3
-8 8 0 6 -8 10 -17 10 -28 0 -161 77 -223 128 -46 38 -120 127 -126 152 0 3
-8 21 -16 40 -14 31 -19 55 -32 145 -3 18 -11 20 -70 22 -38 1 -70 4 -73 7 -3
3 -14 1 -24 -4 -12 -7 -20 -7 -24 0 -4 6 -11 8 -16 4 -10 -6 -99 -8 -124 -4
-5 2 -14 1 -20 0 -24 -5 -144 -2 -153 4 -6 3 -13 3 -16 -2 -5 -8 -96 -5 -104
3 -3 2 -13 0 -23 -5 -12 -7 -20 -7 -24 0 -4 6 -11 8 -16 4 -13 -8 -118 -9
-125 -1 -3 3 -17 2 -30 -3 -14 -6 -26 -6 -29 0 -4 7 -13 6 -26 0 -11 -6 -26
-7 -34 -3 -8 5 -42 6 -76 3 -33 -3 -63 -2 -65 2 -3 4 -13 5 -22 0 -14 -6 -106
-8 -122 -2 -3 2 -9 1 -15 0 -12 -2 -136 -2 -150 1 -5 1 -14 0 -20 -1 -13 -2
-117 -2 -130 0 -5 2 -14 1 -20 0 -23 -4 -146 -2 -151 3 -3 3 -16 2 -28 -1 -11
-4 -39 -5 -62 -2 -39 5 -41 7 -40 38 1 17 -3 32 -7 32 -5 0 -5 5 -2 11 10 15
12 80 3 86 -5 2 -6 9 -2 14 9 16 11 80 2 86 -5 2 -5 9 -2 15 10 15 10 119 1
125 -4 2 -5 9 -1 14 9 16 11 80 2 85 -5 3 -5 13 0 22 8 20 8 104 -1 118 -3 5
-2 16 2 23 5 7 5 28 1 47 -4 18 -6 35 -3 38 9 9 9 66 0 66 -4 0 -5 5 -2 11 11
16 12 69 2 69 -4 0 -5 5 -2 11 11 16 12 69 2 69 -4 0 -5 5 -2 11 11 16 12 69
2 69 -4 0 -5 5 -2 11 11 16 12 69 2 69 -4 0 -5 5 -2 11 11 16 12 69 2 69 -4 0
-5 5 -2 11 11 16 12 69 2 69 -4 0 -5 5 -2 11 11 16 12 69 2 69 -4 0 -5 5 -2
11 11 16 12 69 2 69 -4 0 -5 5 -2 11 11 16 12 69 2 69 -4 0 -5 5 -2 11 11 16
12 69 2 69 -4 0 -5 5 -2 11 11 16 12 69 2 69 -4 0 -5 5 -2 11 11 16 12 69 2
69 -4 0 -5 5 -2 11 11 16 12 69 2 69 -4 0 -5 6 -1 12 11 18 11 62 -1 70 -7 5
-7 8 0 8 11 0 11 99 1 126 -3 8 -2 14 2 14 8 0 8 57 0 66 -4 3 -3 18 2 32 4
15 3 37 -1 50 -5 12 -5 22 -1 22 8 0 7 202 -1 225 -4 8 -3 15 1 15 9 0 7 74
-3 89 -3 6 -3 11 2 11 7 0 9 114 3 130 -1 3 -1 10 0 15 6 28 4 77 -2 82 -5 2
-5 9 -2 15 10 15 10 119 1 125 -4 2 -5 9 -1 14 9 16 11 80 2 85 -5 3 -5 13 0
22 8 20 8 104 -1 118 -3 5 -2 16 2 23 5 7 5 28 1 47 -4 18 -6 35 -3 38 9 9 9
66 0 66 -4 0 -5 5 -2 11 11 16 12 69 2 69 -4 0 -5 5 -2 11 11 16 12 69 3 69
-5 0 -5 8 -1 18 5 9 8 28 8 42 l0 25 -890 3 -890 2 0 -980 1 -980 -51 0 c-394
-3 -3188 0 -3192 3 -2 3 -4 444 -4 981 l0 976 -1778 0 -1778 0 -63 -192 c-35
-106 -62 -193 -61 -193 1 0 -5 -18 -15 -40 -9 -22 -16 -41 -15 -42 1 -4 -4
-19 -27 -88 -11 -33 -50 -154 -87 -270 -36 -115 -71 -222 -77 -237 -5 -15 -9
-28 -8 -30 1 -2 -5 -20 -13 -40 -8 -20 -13 -39 -9 -42 3 -3 0 -6 -7 -6 -7 0
-10 -4 -6 -10 3 -5 1 -17 -4 -27 -8 -15 -99 -289 -105 -318 -9 -38 -71 -222
-79 -232 -5 -7 -7 -13 -4 -13 3 0 -9 -45 -28 -99 -18 -55 -31 -102 -27 -105 3
-3 0 -6 -6 -6 -7 0 -11 -3 -11 -7 1 -5 0 -10 -1 -13 -1 -3 -3 -12 -5 -20 -1
-8 -24 -80 -50 -159 -26 -79 -48 -149 -50 -155 -1 -6 -5 -18 -8 -26 -3 -8 -20
-60 -38 -115 -17 -55 -41 -130 -54 -166 -13 -37 -21 -70 -18 -73 4 -3 1 -6 -6
-6 -7 0 -9 -5 -6 -10 4 -6 2 -16 -3 -23 -8 -10 -17 -38 -27 -82 -2 -5 -15 -44
-29 -85 -15 -41 -27 -76 -27 -77 0 -2 -1 -8 -4 -15 -22 -68 -130 -404 -130
-408 -1 -3 -20 -63 -44 -135 -23 -71 -44 -134 -45 -140 -1 -5 -7 -23 -13 -40
-16 -44 -90 -276 -97 -307 -3 -16 -11 -28 -17 -28 -6 0 -8 4 -5 9 3 4 -1 17
-9 27 -8 10 -15 27 -15 37 0 9 -4 17 -8 17 -5 0 -9 6 -10 13 -1 13 -26 85 -47
132 -7 17 -27 68 -45 115 -18 47 -41 104 -51 127 -11 24 -19 45 -19 47 0 3 -5
17 -12 33 -6 15 -12 30 -13 33 -1 3 -5 13 -8 22 -14 37 -20 53 -23 63 -2 6
-24 62 -50 125 -26 63 -47 121 -47 128 0 6 -4 12 -9 12 -4 0 -7 3 -6 8 1 4 -3
16 -9 27 -6 11 -12 25 -13 30 -6 23 -34 101 -60 160 -7 18 -20 51 -25 65 -1 3
-7 19 -14 35 -7 17 -14 35 -15 40 -4 14 -16 45 -32 82 -8 17 -14 34 -14 38 0
3 -8 25 -18 48 -26 60 -64 155 -66 167 -1 3 -20 52 -43 110 -23 58 -44 112
-45 120 -2 8 -6 17 -9 20 -6 5 -63 149 -64 160 0 3 -7 24 -17 45 -15 36 -29
72 -33 85 -1 3 -6 16 -12 30 -10 21 -21 51 -28 70 -1 3 -5 14 -10 25 -53 132
-105 270 -105 279 0 7 -5 17 -12 24 -6 6 -13 17 -14 24 -2 14 -48 133 -70 185
-8 17 -14 33 -14 36 0 3 -5 18 -12 34 -6 15 -12 30 -13 33 -2 7 -24 61 -32 80
-3 8 -7 17 -8 20 -1 3 -7 18 -13 33 -7 16 -12 31 -12 34 0 3 -6 19 -14 36 -13
30 -28 66 -31 77 -1 3 -9 22 -18 44 -9 21 -17 44 -17 52 0 7 -4 15 -9 19 -5 3
-13 20 -16 38 -4 17 -13 43 -21 57 -7 14 -36 86 -64 160 -28 74 -55 144 -60
155 -19 42 -60 149 -60 156 0 5 -11 32 -24 61 -13 29 -31 71 -39 93 l-15 40
-1176 3 -1176 2 -11 -27 c-6 -16 -12 -35 -14 -43 -2 -8 -13 -37 -25 -65 -33
-77 -36 -84 -71 -175 -19 -47 -33 -88 -31 -92 1 -5 -2 -8 -6 -8 -5 0 -9 -6 -9
-12 -1 -11 -96 -263 -123 -323 -5 -11 -25 -60 -44 -110 -115 -297 -149 -381
-156 -390 -5 -5 -9 -13 -9 -17 -7 -43 -15 -68 -24 -68 -6 0 -8 -3 -4 -6 3 -4
0 -19 -9 -35 -8 -16 -12 -29 -9 -29 4 0 -1 -12 -9 -27 -9 -16 -36 -82 -61
-148 -25 -66 -50 -129 -55 -140 -17 -39 -120 -304 -120 -311 0 -3 -7 -20 -14
-37 -29 -62 -116 -291 -116 -304 0 -7 -4 -13 -10 -13 -5 0 -10 -8 -10 -18 0
-10 -3 -22 -7 -26 -4 -3 -8 -12 -9 -19 -1 -7 -27 -75 -58 -152 -32 -77 -58
-144 -60 -150 -4 -12 -8 -24 -53 -140 -19 -49 -39 -99 -43 -110 -25 -57 -38
-95 -33 -95 3 0 -1 -7 -8 -16 -7 -9 -14 -21 -15 -28 -2 -9 -74 -195 -109 -281
-4 -11 -9 -25 -10 -31 -2 -6 -10 -27 -18 -45 -28 -60 -110 -274 -110 -286 0
-7 -4 -13 -9 -13 -4 0 -8 -5 -8 -12 0 -23 -105 -278 -114 -278 -5 0 -6 3 -3 6
3 4 2 15 -4 26 -6 11 -12 27 -14 36 -2 9 -12 42 -23 72 -11 30 -20 60 -22 65
-1 6 -4 15 -6 20 -16 47 -56 173 -59 185 -2 8 -26 85 -55 170 -28 85 -53 160
-54 165 -2 6 -6 17 -9 25 -4 8 -8 24 -10 35 -2 11 -7 27 -10 35 -3 8 -25 74
-48 145 -23 72 -56 175 -74 230 -60 182 -167 516 -169 528 -2 7 -6 19 -9 27
-18 42 -47 135 -47 152 0 10 -4 18 -8 18 -5 0 -9 6 -9 13 0 12 -78 265 -93
302 -11 27 -44 127 -46 140 -1 6 -3 15 -4 20 -1 6 -2 13 -1 18 0 4 -4 7 -9 7
-5 0 -9 3 -8 8 2 9 -20 90 -32 117 -10 23 -91 272 -95 295 -2 8 -4 16 -5 18
-2 1 -4 7 -5 12 -1 6 -4 12 -5 15 -1 3 -3 8 -5 13 -1 4 -4 14 -8 22 -3 8 -11
33 -17 55 -6 22 -14 47 -17 55 -4 8 -7 17 -8 20 0 3 -9 32 -20 65 -10 33 -19
63 -21 68 -1 4 -3 9 -4 12 -1 3 -3 8 -5 13 -1 4 -4 14 -8 22 -9 24 -109 334
-112 350 -2 8 -4 16 -5 18 -2 1 -3 5 -4 10 -5 21 -49 160 -56 177 -15 34 -83
249 -83 263 0 9 -187 12 -900 12 -852 0 -899 -1 -892 -17 22 -59 165 -498 165
-510 0 -7 5 -13 12 -13 6 0 9 -3 6 -6 -3 -3 28 -105 69 -227 41 -122 75 -226
76 -232 2 -5 6 -16 10 -22 5 -7 6 -13 4 -13 -3 0 15 -57 40 -127 24 -71 46
-132 47 -138 2 -5 6 -23 11 -40 4 -16 12 -35 17 -41 5 -7 8 -16 7 -20 -1 -5 1
-16 4 -24 9 -23 219 -653 221 -665 1 -5 4 -14 7 -20 3 -5 14 -37 24 -70 10
-33 26 -82 36 -110 10 -27 21 -63 25 -80 4 -16 11 -36 17 -42 5 -7 7 -13 3
-13 -4 0 0 -13 9 -29 8 -17 16 -38 18 -48 1 -10 5 -22 8 -28 5 -8 16 -42 24
-75 2 -10 117 -355 122 -370 4 -8 7 -17 8 -20 3 -15 57 -177 62 -190 8 -20 14
-42 15 -57 1 -7 5 -13 10 -13 4 0 8 -6 8 -13 0 -7 32 -110 71 -228 39 -118 72
-218 73 -224 2 -5 6 -17 9 -25 6 -14 105 -314 111 -335 2 -5 6 -17 9 -25 10
-26 58 -174 62 -190 3 -14 80 -246 93 -280 3 -8 6 -18 7 -22 2 -5 4 -10 5 -13
3 -5 3 -6 15 -50 4 -16 11 -34 16 -40 4 -5 8 -14 8 -20 1 -12 20 -73 30 -100
12 -28 42 -121 45 -137 2 -7 7 -24 13 -38 5 -14 38 -114 74 -222 l64 -198
1281 0 1281 0 27 73 c16 39 34 86 41 102 7 17 20 52 29 79 9 27 29 78 45 115
15 36 28 68 29 71 1 6 20 59 29 80 3 8 7 18 7 22 1 3 4 10 8 14 5 4 8 14 8 22
0 8 7 28 15 45 8 18 37 93 65 167 28 74 54 144 59 155 5 11 17 43 27 70 10 28
21 55 24 60 4 6 17 37 28 70 20 59 124 330 141 370 5 11 14 34 20 50 6 17 16
44 22 60 7 17 13 35 14 40 2 6 16 44 33 85 17 41 45 113 62 160 18 47 52 137
77 200 25 63 46 120 48 125 1 6 8 24 15 40 7 17 14 35 16 40 1 6 23 64 49 130
50 132 52 138 53 145 0 3 14 36 31 73 17 38 31 77 31 86 0 9 4 21 8 27 5 5 17
32 26 59 10 28 26 69 37 92 10 24 19 45 19 47 0 3 5 17 12 33 6 15 12 33 13
38 3 11 52 140 66 170 13 30 51 128 54 140 1 6 6 19 10 30 44 111 53 135 47
135 -4 0 -1 4 5 8 7 4 14 17 16 27 1 11 7 27 12 35 5 8 10 20 11 25 2 10 91
243 118 306 8 20 14 38 12 40 -2 2 2 10 10 17 11 10 14 10 14 -1 0 -12 74
-211 100 -272 5 -11 23 -58 40 -105 34 -93 47 -125 62 -154 5 -10 11 -26 13
-35 2 -9 38 -104 80 -211 42 -107 77 -199 79 -205 2 -5 8 -23 14 -38 7 -16 12
-30 12 -32 0 -2 5 -16 12 -32 6 -15 12 -30 13 -33 9 -25 68 -176 77 -195 5
-12 10 -27 12 -35 1 -8 12 -37 24 -64 12 -27 22 -51 22 -55 0 -5 53 -146 75
-196 4 -11 9 -22 10 -25 5 -19 19 -60 30 -85 57 -135 100 -255 97 -267 -1 -5
3 -8 8 -8 5 0 9 -3 8 -7 -1 -5 4 -21 11 -38 6 -16 39 -102 72 -190 33 -88 64
-169 69 -180 5 -11 32 -81 60 -155 28 -74 55 -144 60 -155 10 -24 23 -58 25
-65 0 -3 11 -32 24 -65 13 -33 34 -87 46 -120 97 -253 116 -302 124 -320 5
-11 19 -47 31 -80 11 -33 25 -69 30 -80 10 -21 54 -136 55 -145 0 -3 6 -15 13
-27 7 -13 10 -23 6 -23 -3 0 -1 -6 5 -14 7 -8 13 -22 15 -32 2 -11 20 -59 39
-109 19 -49 38 -98 41 -107 5 -17 75 -18 1285 -18 l1279 0 8 28 c4 15 8 29 8
32 1 3 4 10 8 15 3 6 9 27 13 48 4 20 12 37 18 37 6 0 8 3 5 6 -4 3 5 38 19
77 13 40 26 79 28 88 2 8 10 32 19 52 8 20 13 37 10 37 -2 0 3 17 12 38 8 20
17 44 19 52 3 16 72 225 82 250 4 8 7 17 7 20 1 3 5 11 9 18 5 6 6 12 3 12 -3
0 2 16 10 35 8 19 12 35 9 35 -3 0 0 10 7 23 7 12 13 24 13 27 7 30 19 67 24
75 3 6 6 15 7 20 1 6 28 87 59 180 31 94 58 175 59 180 2 6 6 17 9 25 3 8 54
161 113 340 59 179 109 330 113 335 3 6 6 15 6 20 2 21 38 131 47 143 6 6 8
12 4 12 -4 0 0 14 9 30 9 17 13 30 11 30 -3 0 2 16 10 35 8 19 11 35 8 35 -4
0 -1 6 5 14 11 13 22 46 23 74 1 6 4 12 8 12 4 0 7 6 7 13 0 6 24 81 52 165
29 84 54 161 56 170 6 22 264 801 275 827 10 23 89 263 95 285 2 8 11 35 20
60 9 25 18 52 20 60 4 17 102 316 112 340 3 8 7 21 9 28 1 8 6 21 10 30 4 9 8
20 9 25 2 4 3 8 5 10 1 1 3 9 5 17 1 8 19 65 40 125 20 61 38 116 38 123 0 6
5 12 10 12 5 0 7 7 3 15 -3 8 0 15 6 15 6 0 9 3 5 6 -3 3 -1 18 5 33 5 14 11
33 13 41 2 8 34 103 70 210 36 107 65 200 65 207 0 7 4 13 8 13 4 0 8 10 9 21
1 12 6 26 10 30 4 4 8 -1202 8 -2681 l0 -2690 887 0 887 0 1 728 c1 400 1 734
1 742 0 8 0 80 0 160 0 80 0 154 0 165 -2 88 1 170 5 177 3 4 15 4 27 -1 12
-5 31 -5 42 -1 11 4 27 5 35 1 14 -6 30 -6 55 -1 23 4 106 1 126 -5 12 -4 19
-3 16 1 -3 5 27 8 66 6 82 -3 73 -3 152 -2 33 0 71 -1 85 -3 14 -2 29 -1 34 2
14 7 101 4 127 -4 12 -4 19 -3 16 1 -3 5 27 8 66 6 82 -3 73 -3 152 -2 33 0
71 -1 85 -3 14 -2 29 -1 34 2 14 7 101 4 127 -4 12 -4 19 -3 16 1 -5 9 131 10
140 1 2 -3 17 -2 31 3 15 4 37 3 50 -1 12 -5 22 -5 22 -1 0 4 30 6 67 4 38 -2
73 -3 78 -3 17 0 128 1 165 2 19 0 41 0 48 0 25 -2 39 -2 97 -1 33 0 71 -1 85
-3 14 -2 29 -1 34 2 14 7 101 4 127 -4 12 -4 19 -3 16 1 -3 5 27 8 66 6 82 -3
73 -3 152 -2 33 0 71 -1 85 -3 14 -2 29 -1 34 2 14 7 101 4 127 -4 12 -4 19
-3 16 1 -3 5 27 8 66 6 70 -3 88 -3 155 1 17 1 32 0 32 -3 0 -3 25 -3 55 0 30
3 55 3 55 -1 0 -3 18 -3 40 1 22 4 40 4 40 -1 0 -4 12 -4 28 0 15 5 36 5 48 1
20 -8 20 -11 19 -989 l0 -981 886 0 c878 0 887 0 892 20 3 11 1 23 -4 26 -5 3
-7 10 -3 15 10 16 11 69 1 69 -4 0 -5 5 -2 11 11 16 12 69 2 69 -4 0 -5 5 -2
11 11 16 12 69 2 69 -4 0 -5 5 -2 11 11 16 12 69 2 69 -4 0 -5 5 -2 11 11 16
12 69 2 69 -4 0 -5 5 -2 11 11 16 12 69 2 69 -4 0 -5 5 -2 11 11 16 12 69 2
69 -4 0 -5 5 -1 12 10 16 11 68 1 68 -5 0 -5 5 -2 11 11 16 12 69 2 69 -4 0
-5 5 -2 11 11 16 12 69 2 69 -4 0 -5 5 -2 11 11 16 12 69 2 69 -4 0 -5 5 -2
11 11 16 12 69 2 69 -4 0 -5 5 -2 11 11 16 12 69 2 69 -4 0 -5 5 -2 11 11 16
12 69 2 69 -4 0 -5 5 -1 12 10 16 11 148 1 148 -5 0 -5 5 -1 11 8 14 8 124 0
138 -4 5 -2 12 2 15 5 3 6 26 2 51 -4 25 -3 48 2 51 4 3 9 0 9 -5 1 -6 2 -19
4 -28 1 -10 5 -29 8 -43 4 -14 9 -38 11 -55 2 -16 5 -31 6 -32 2 -2 4 -7 5
-13 1 -5 3 -11 5 -12 1 -2 3 -14 5 -28 7 -59 64 -218 118 -330 39 -81 140
-243 189 -303 56 -69 180 -188 253 -245 44 -34 85 -67 92 -72 6 -5 35 -24 65
-42 29 -17 56 -37 60 -42 4 -6 8 -8 8 -3 0 4 17 -3 38 -16 93 -57 293 -143
467 -201 44 -14 94 -31 110 -37 17 -5 37 -12 45 -14 8 -1 44 -11 80 -20 36 -9
72 -19 80 -21 20 -5 179 -42 185 -43 3 0 15 -3 28 -6 29 -6 84 -15 127 -21 19
-2 42 -7 50 -10 8 -3 33 -8 55 -10 22 -2 56 -7 75 -10 19 -4 46 -8 60 -9 14
-2 48 -6 75 -10 139 -18 371 -39 560 -50 76 -5 436 -17 463 -16 48 2 80 1 97
-2 11 -2 30 -1 42 4 12 5 24 5 27 1 3 -5 31 -6 63 -4 32 2 65 3 73 3 85 -3
517 14 624 24 22 3 66 7 96 9 90 8 173 16 208 21 18 3 52 7 75 10 23 3 58 8
77 10 19 3 51 8 70 10 19 3 44 7 56 10 12 2 39 7 60 10 41 7 64 11 104 19 36
8 122 26 145 30 11 2 40 9 65 16 25 7 50 13 55 15 34 7 78 20 135 38 36 12 67
22 70 22 21 5 97 30 105 35 6 4 33 15 60 25 28 10 74 28 103 41 28 13 55 24
60 25 8 2 110 56 182 97 25 14 68 42 95 61 28 20 55 39 60 43 26 18 115 98
159 143 52 53 166 201 166 215 0 5 6 15 13 22 19 20 81 153 112 238 39 109 75
268 79 345 1 17 4 35 7 40 3 6 7 77 8 160 2 82 5 153 8 157 2 5 1 8 -4 8 -4 0
-8 24 -9 53 -1 63 -17 202 -24 202 -1 0 -3 16 -5 35 -6 41 -10 59 -18 80 -4 8
-9 26 -11 40 -9 49 -43 141 -70 190 -8 14 -14 27 -13 30 1 6 -83 153 -92 160
-3 3 -23 26 -44 52 -49 62 -115 128 -127 128 -6 0 -10 4 -10 9 0 5 -33 33 -72
62 -40 30 -74 57 -76 61 -2 5 -8 8 -13 8 -4 0 -40 20 -78 45 -38 25 -76 45
-84 45 -9 0 -17 4 -19 8 -5 15 -255 126 -308 137 -8 2 -34 10 -57 19 -24 8
-43 13 -43 9 0 -3 -6 -1 -12 4 -7 5 -39 16 -70 23 -32 7 -58 16 -58 19 0 3
-12 6 -27 7 -30 0 -79 9 -103 17 -8 3 -35 9 -60 12 -68 10 -85 13 -85 15 0 3
-37 9 -85 15 -25 3 -56 8 -70 11 -37 8 -60 12 -110 18 -25 3 -63 9 -85 12 -22
3 -53 7 -70 9 -16 2 -30 4 -30 5 0 1 -23 4 -115 14 -95 10 -158 18 -190 23
-19 3 -53 7 -75 8 -46 4 -152 14 -210 21 -22 3 -78 7 -125 9 -47 2 -85 5 -85
6 0 3 -52 8 -135 14 -47 3 -110 7 -140 10 -30 3 -84 8 -120 10 -168 11 -299
21 -392 30 -32 3 -82 7 -110 9 -91 8 -328 35 -373 43 -16 3 -41 7 -55 9 -76
10 -165 27 -187 34 -5 1 -12 3 -18 4 -5 1 -28 6 -50 11 -22 5 -42 9 -45 10 -3
0 -39 14 -80 29 -81 31 -137 67 -171 110 -28 35 -57 114 -55 149 1 15 -2 27
-7 27 -4 0 -6 4 -3 9 3 5 8 24 10 42 14 109 102 189 284 259 28 11 52 18 52
15 0 -2 11 0 24 5 13 5 41 11 63 15 21 3 49 7 62 10 13 2 49 7 80 10 31 4 67
8 81 11 143 23 885 23 1100 -1 25 -3 68 -7 95 -10 28 -2 64 -7 80 -9 17 -3 48
-7 70 -10 22 -3 51 -8 65 -11 14 -3 39 -7 56 -9 73 -9 235 -61 313 -99 95 -47
198 -139 226 -203 9 -21 21 -47 26 -57 5 -9 12 -44 16 -77 l6 -60 908 0 c500
0 912 1 917 3 21 7 -5 231 -42 362 -2 6 -6 24 -10 40 -5 17 -14 44 -22 62 -8
17 -14 34 -14 38 0 25 -127 276 -162 320 -5 6 -34 44 -66 85 -57 73 -144 165
-213 225 -78 68 -222 175 -236 175 -3 0 -14 6 -22 14 -27 24 -211 120 -306
161 -22 9 -49 21 -60 26 -27 11 -77 31 -90 35 -5 2 -67 23 -137 47 -71 25
-128 42 -128 40 0 -3 -7 0 -15 7 -8 7 -15 10 -15 7 0 -3 -15 -1 -32 4 -18 6
-40 12 -48 14 -8 2 -15 4 -15 6 0 1 -11 2 -25 3 -14 1 -30 4 -35 8 -6 3 -28
10 -50 14 -22 5 -42 9 -45 9 -3 1 -18 4 -35 8 -34 8 -52 12 -115 22 -25 4 -54
9 -65 12 -25 6 -37 8 -100 17 -27 4 -62 10 -76 12 -65 10 -124 17 -244 29 -27
3 -72 8 -100 11 -104 10 -133 13 -230 19 -117 6 -892 15 -897 10z m-2791
-3927 c-3 -8 -6 -5 -6 6 -1 11 2 17 5 13 3 -3 4 -12 1 -19z"/>
<path d="M22250 10300 l-25 -6 0 -308 c0 -300 0 -307 -18 -285 -66 82 -110
118 -207 172 -37 20 -88 38 -110 39 -3 0 -12 4 -22 9 -52 28 -299 31 -433 4
-11 -2 -20 -4 -20 -5 0 -1 -7 -3 -15 -5 -32 -6 -125 -47 -151 -66 -15 -10 -32
-19 -37 -19 -18 0 -148 -136 -166 -174 -9 -19 -20 -38 -25 -40 -5 -3 -12 -17
-15 -30 -3 -14 -11 -38 -17 -53 -7 -15 -13 -35 -15 -43 -1 -8 -6 -31 -10 -50
-12 -59 -5 -272 9 -287 4 -3 7 -13 7 -22 0 -9 7 -29 15 -45 8 -15 15 -34 15
-40 0 -21 62 -108 115 -161 68 -69 197 -145 275 -161 127 -27 177 -32 275 -29
61 2 121 6 135 9 14 3 39 9 55 13 17 4 33 7 37 7 3 1 10 4 14 9 4 4 16 7 26 7
10 0 18 5 18 12 0 6 3 8 6 5 8 -8 31 4 104 52 61 40 99 75 125 114 9 15 20 27
24 27 3 0 6 -48 6 -107 l0 -108 221 -1 c220 -2 222 -1 232 21 6 12 7 27 2 34
-4 7 -4 27 -1 44 4 18 4 51 1 75 -4 23 -3 45 1 48 5 2 5 15 0 27 -4 12 -5 36
-1 52 3 17 3 44 0 60 -3 17 -3 44 0 60 3 17 3 48 0 71 -4 22 -3 49 1 60 3 10
3 26 -1 34 -4 8 -4 26 0 40 3 14 4 39 0 55 -3 17 -3 44 0 60 3 17 3 49 -1 73
-3 23 -2 45 3 48 4 3 4 12 -1 21 -5 9 -5 28 -1 43 4 15 4 33 0 40 -4 7 -4 25
0 40 4 15 4 33 0 40 -4 7 -4 25 0 41 5 15 6 30 3 33 -8 8 -7 112 1 125 4 5 2
12 -4 16 -6 4 -8 11 -4 16 3 6 5 36 4 67 -1 31 -1 63 -1 70 1 6 1 27 1 45 0
17 -1 49 -1 70 1 22 -4 37 -12 38 -57 2 -187 0 -194 -4 -4 -2 -17 -1 -28 3
-11 4 -30 4 -41 -1 -12 -4 -24 -6 -27 -3 -9 9 -77 10 -77 1 0 -6 -5 -6 -12 0
-7 5 -24 7 -38 3z m-280 -744 c14 -4 36 -9 50 -12 35 -7 116 -53 145 -81 61
-62 76 -180 31 -247 -50 -75 -124 -113 -271 -140 -39 -8 -192 -8 -230 -1 -55
10 -135 38 -135 46 0 5 -6 9 -14 9 -7 0 -30 16 -50 35 -59 55 -81 148 -54 226
14 41 58 99 76 99 6 0 12 4 12 8 0 7 37 30 60 37 3 1 12 5 20 8 8 4 28 9 44
11 16 3 31 7 33 10 7 7 254 0 283 -8z"/>
<path d="M22800 10295 c-4 -5 -9 -67 -9 -138 l-2 -127 228 2 228 3 0 128 c0
71 -3 131 -7 134 -5 2 -50 4 -101 3 -124 -1 -118 -1 -155 3 -18 3 -35 0 -38
-4 -3 -5 -10 -6 -16 -3 -17 11 -119 10 -128 -1z"/>
<path d="M24248 9954 c-3 -3 -61 -7 -129 -10 -125 -5 -214 -11 -214 -14 0 -1
-18 -3 -40 -5 -22 -1 -60 -5 -85 -9 -25 -4 -58 -9 -75 -12 -16 -2 -52 -9 -80
-14 -27 -5 -66 -11 -86 -14 -20 -3 -47 -10 -60 -15 -26 -9 -33 -11 -50 -11 -6
0 -8 -8 -5 -17 3 -10 8 -34 11 -53 3 -19 8 -42 10 -50 2 -8 7 -37 11 -65 18
-128 18 -130 39 -128 26 3 76 12 95 16 8 2 33 7 55 12 22 4 49 9 60 12 92 18
117 22 170 28 33 4 69 9 80 12 11 2 81 6 155 8 250 8 363 -27 405 -127 17 -41
20 -82 6 -74 -13 8 -193 43 -261 51 -30 4 -129 8 -220 9 -172 4 -302 -10 -395
-40 -27 -9 -55 -17 -60 -18 -6 -1 -35 -14 -65 -29 -132 -65 -194 -169 -190
-319 3 -102 3 -108 12 -108 4 0 8 -7 8 -16 0 -17 31 -73 60 -107 18 -22 125
-97 138 -97 5 0 27 -7 48 -17 22 -9 52 -18 69 -20 16 -2 43 -7 60 -12 33 -9
248 -7 305 3 44 8 74 14 80 16 3 1 8 2 12 1 3 0 30 7 60 15 29 9 58 17 63 19
6 1 19 5 30 9 11 4 29 11 40 15 11 4 60 27 109 52 48 24 92 46 97 47 5 2 9
-30 9 -71 l0 -74 228 1 227 1 -1 350 c0 373 -4 439 -31 505 -6 14 -9 28 -6 33
2 4 -1 7 -7 7 -6 0 -9 4 -6 9 13 20 -90 148 -159 199 -37 27 -174 78 -235 88
-19 3 -46 7 -60 10 -14 3 -67 6 -117 9 -51 2 -97 6 -101 9 -5 3 -12 3 -14 0z
m7 -729 c33 -3 74 -8 90 -11 17 -2 46 -6 65 -9 19 -3 44 -7 55 -9 11 -3 30 -5
43 -5 20 -1 22 -6 22 -50 0 -44 -3 -50 -29 -60 -16 -7 -37 -14 -47 -16 -11 -2
-19 -4 -19 -5 0 -3 -39 -11 -66 -14 -14 -1 -30 -6 -36 -9 -11 -7 -81 -19 -120
-21 -13 -1 -23 -4 -23 -7 0 -7 0 -7 -128 -12 -121 -5 -180 7 -222 42 -60 51
-45 140 28 170 64 27 229 33 387 16z"/>
<path d="M17435 9934 c-33 -8 -67 -16 -75 -19 -72 -23 -90 -31 -90 -37 0 -5
-5 -8 -11 -8 -16 0 -98 -58 -149 -106 l-45 -42 0 91 0 92 -230 0 -229 0 0
-586 -1 -586 228 0 c125 0 228 3 228 6 1 3 2 150 4 326 2 301 3 323 23 368 12
26 28 50 37 53 8 4 15 11 15 18 0 10 42 34 65 37 6 0 15 4 20 8 19 15 63 21
147 21 109 -1 118 -2 118 -12 0 -4 8 -8 17 -8 30 0 81 -44 104 -89 18 -36 23
-66 26 -160 3 -64 4 -123 4 -131 -3 -43 0 -133 5 -141 3 -5 2 -9 -3 -9 -7 0
-7 -65 -3 -271 0 -14 25 -16 228 -15 l227 1 1 315 c1 361 4 380 68 444 53 52
126 76 236 76 155 2 224 -39 256 -149 13 -43 16 -112 17 -371 l0 -317 228 0
227 0 4 43 c2 24 1 44 -2 44 -6 0 -3 115 4 143 2 9 1 17 -2 17 -4 0 -6 118 -6
263 1 144 -1 267 -4 272 -4 6 -7 19 -8 30 -2 32 -30 118 -53 163 -19 38 -101
141 -101 127 0 -4 -7 0 -15 8 -63 64 -178 99 -332 102 -77 2 -123 -1 -123 -7
0 -6 -7 -7 -16 -4 -8 3 -31 -1 -50 -9 -19 -8 -34 -12 -34 -10 0 9 -98 -38
-150 -73 -57 -37 -143 -119 -171 -162 l-16 -25 -22 43 c-55 108 -154 192 -263
223 -24 7 -50 14 -58 16 -40 11 -221 9 -275 -3z"/>
<path d="M19928 9945 c-1 -1 -34 -6 -71 -10 -104 -10 -212 -41 -312 -90 -164
-79 -265 -187 -314 -333 -39 -116 -43 -189 -15 -339 7 -41 61 -156 75 -161 5
-2 9 -8 9 -14 0 -5 7 -16 15 -24 8 -8 20 -23 27 -32 24 -33 133 -110 206 -146
39 -20 72 -33 72 -30 0 4 7 1 15 -6 8 -7 15 -9 15 -5 0 4 7 2 15 -5 8 -7 15
-9 15 -6 0 4 8 2 18 -3 9 -5 32 -12 50 -15 17 -3 44 -8 60 -11 211 -40 585
-17 727 44 77 34 98 45 141 74 27 18 59 41 72 52 37 32 117 146 137 195 9 25
19 51 22 58 4 9 -42 12 -212 12 l-218 0 -42 -39 c-42 -39 -135 -80 -187 -84
-15 -1 -28 -5 -28 -8 0 -10 -270 -8 -276 2 -3 5 -9 7 -13 4 -27 -16 -220 80
-221 110 0 6 -9 21 -20 35 -11 14 -20 33 -20 43 0 16 36 17 626 17 l626 0 -6
83 c-5 78 -18 138 -48 218 -17 47 -87 159 -98 159 -5 0 -11 8 -14 18 -3 9 -28
33 -56 52 -27 19 -49 38 -50 43 0 4 -7 7 -15 7 -8 0 -15 5 -15 10 0 6 -4 10
-10 10 -5 0 -37 13 -71 29 -33 17 -70 31 -82 33 -12 2 -24 6 -27 10 -3 3 -18
8 -35 11 -16 3 -43 9 -60 12 -16 4 -46 9 -65 11 -44 6 -337 14 -342 9z m257
-320 c104 -12 188 -57 245 -130 37 -48 40 -47 -363 -47 -208 0 -380 2 -384 5
-10 11 33 72 73 102 86 66 247 92 429 70z"/>
<path d="M22793 9323 l2 -588 225 0 225 0 0 585 0 585 -227 3 -227 2 2 -587z"/>
</g>
</svg>
