<svg width="144" height="51" viewBox="0 0 144 51" fill="none" xmlns="http://www.w3.org/2000/svg">
<g clip-path="url(#clip0_5_83)">
<path d="M-0.00234985 9.98657H9.56287L16.6258 31.8615L25.182 9.98657H37.7338L46.2901 31.8615L53.353 9.98657H62.9182L53.3126 38.9647H39.6711L31.4781 17.6145L23.2851 38.9647H9.60323L-0.00234985 9.98657Z" fill="black"/>
<path d="M62.8779 9.98657H72.3624V20.4801H89.717V9.98657H99.2015V38.9647H89.717V28.4309H72.3624V38.9647H62.8779V9.98657Z" fill="black"/>
<path d="M117.888 39.772C111.834 39.772 107.233 38.9648 104.125 37.3504C101.018 35.736 99.3629 33.0723 99.1611 29.3996H109.009C109.009 31.7404 111.834 32.9109 117.484 32.9109C119.543 32.9109 121.157 32.8302 122.247 32.6284C123.337 32.4266 124.103 32.1844 124.507 31.8212C124.911 31.4983 125.112 31.0543 125.112 30.4893C125.112 29.8839 124.911 29.3996 124.547 29.0767C124.144 28.7942 123.417 28.552 122.328 28.3906C121.238 28.2292 119.462 28.0677 117 27.9063L115.587 27.8256C111.834 27.6238 108.807 27.1395 106.466 26.413C104.125 25.6865 102.39 24.6372 101.3 23.3053C100.17 21.9734 99.6051 20.2783 99.6051 18.22C99.6051 15.3141 101.058 13.0943 103.964 11.5607C106.829 10.0674 110.825 9.30054 115.91 9.30054C121.601 9.30054 125.92 10.1481 128.946 11.8028C131.973 13.4979 133.547 15.9599 133.749 19.1886H123.902C123.902 18.0989 123.256 17.3321 121.964 16.8478C120.673 16.4038 118.614 16.1617 115.83 16.1617C113.408 16.1617 111.753 16.3231 110.825 16.6863C109.897 17.0496 109.453 17.5339 109.453 18.22C109.453 18.7447 109.655 19.1886 110.018 19.4711C110.381 19.7537 111.108 19.9958 112.197 20.1976C113.247 20.3994 114.861 20.5609 117.04 20.7223L118.695 20.8434C122.529 21.1259 125.597 21.5295 127.816 22.0138C130.036 22.5385 131.772 23.4264 133.063 24.6775C134.314 25.9287 134.96 27.7449 134.96 30.1261C134.96 33.6374 133.547 36.0993 130.682 37.5522C127.816 39.0455 123.538 39.772 117.888 39.772Z" fill="black"/>
<path fill-rule="evenodd" clip-rule="evenodd" d="M138.511 19.1791H135.945C135.945 16.0359 135.373 13.2064 133.538 11.1808C131.686 9.13713 128.59 7.97702 123.733 7.97702V5.41162C129.565 5.41162 133.215 7.00415 135.439 9.4582C137.679 11.9304 138.511 15.3429 138.511 19.1791Z" fill="black"/>
<path fill-rule="evenodd" clip-rule="evenodd" d="M143.662 19.1787H141.097C141.097 14.3798 139.858 10.2039 137.049 7.24297C134.23 4.27154 129.858 2.56468 123.733 2.56468V-0.000488281C130.736 -0.000488281 135.687 2.08047 138.91 5.47704C142.142 8.88445 143.662 13.6568 143.662 19.1787Z" fill="black"/>
<path d="M99.7988 47.5317C99.7988 47.0078 99.6835 46.6411 99.453 46.4211C99.2225 46.2115 98.8663 46.1067 98.3738 46.1067C97.2736 46.1067 96.7183 46.5678 96.7183 47.5003V50.6018H94.2769V47.5317C94.2769 46.9974 94.1616 46.6306 93.9416 46.4211C93.7111 46.2115 93.3548 46.1067 92.8624 46.1067C91.7622 46.1067 91.2069 46.5678 91.2069 47.5003V50.6018H88.755V44.3045H91.2069V45.3418C91.9298 44.5141 92.8414 44.095 93.9626 44.095C94.5388 44.095 95.0523 44.2207 95.4923 44.4722C95.9324 44.7341 96.2572 45.1323 96.4668 45.6667C96.8335 45.1532 97.2631 44.7656 97.7661 44.4931C98.2585 44.2312 98.8243 44.095 99.474 44.095C100.281 44.095 100.941 44.336 101.465 44.8284C101.978 45.3314 102.24 46.0963 102.24 47.1336V50.6018H99.7988V47.5317Z" fill="black"/>
<path d="M107.249 50.8114C106.316 50.8114 105.499 50.6751 104.797 50.4027C104.095 50.1303 103.55 49.7426 103.173 49.2292C102.795 48.7262 102.607 48.1395 102.607 47.4584C102.607 46.7773 102.795 46.1801 103.173 45.6667C103.539 45.1637 104.074 44.776 104.765 44.5036C105.457 44.2312 106.264 44.095 107.186 44.095C108.663 44.095 109.805 44.4198 110.612 45.0799C111.419 45.74 111.817 46.6935 111.817 47.9404H105.101C105.3 48.7262 106.054 49.1244 107.343 49.1244C107.846 49.1244 108.286 49.0511 108.653 48.9148C109.019 48.7891 109.271 48.6005 109.397 48.37H111.765C111.503 49.1977 111.021 49.8055 110.298 50.2036C109.575 50.6123 108.558 50.8114 107.249 50.8114ZM109.313 46.7773C109.177 46.4316 108.936 46.1696 108.6 46.0124C108.254 45.8657 107.814 45.7819 107.28 45.7819C106.704 45.7819 106.232 45.8657 105.876 46.0229C105.52 46.1801 105.279 46.4316 105.153 46.7773H109.313Z" fill="black"/>
<path d="M118.785 49.3759C118.481 49.837 118.062 50.1932 117.538 50.4447C117.004 50.6962 116.406 50.8219 115.725 50.8219C114.981 50.8219 114.321 50.6857 113.766 50.4028C113.2 50.1304 112.76 49.7427 112.456 49.2397C112.152 48.7368 111.995 48.15 111.995 47.4689C111.995 46.7984 112.152 46.2116 112.456 45.6982C112.76 45.1847 113.2 44.7971 113.766 44.5142C114.321 44.2417 114.981 44.1055 115.725 44.1055C116.406 44.1055 117.004 44.2313 117.538 44.4827C118.062 44.7342 118.481 45.0904 118.785 45.562V42.2195H121.216V50.6019H118.785V49.3759ZM114.531 47.4689C114.531 47.8776 114.709 48.2024 115.065 48.4434C115.421 48.6844 115.914 48.8101 116.553 48.8101C117.245 48.8101 117.789 48.6844 118.188 48.4434C118.586 48.2024 118.785 47.8776 118.785 47.4689C118.785 47.0603 118.586 46.725 118.188 46.484C117.789 46.243 117.245 46.1173 116.553 46.1173C115.914 46.1173 115.421 46.243 115.065 46.484C114.709 46.725 114.531 47.0603 114.531 47.4689Z" fill="black"/>
<path d="M121.813 44.3046H124.233V50.6019H121.813V44.3046ZM121.813 42.2195H124.233V43.6654H121.813V42.2195Z" fill="black"/>
<path d="M127.576 50.8218C126.706 50.8218 126.004 50.6437 125.48 50.2875C124.936 49.9417 124.674 49.4178 124.674 48.7158C124.674 47.9404 125.009 47.3851 125.69 47.0498C126.361 46.7249 127.209 46.5573 128.247 46.5573C129.252 46.5573 130.206 46.6726 131.107 46.9031C131.097 46.5049 130.939 46.222 130.636 46.0544C130.332 45.8972 129.85 45.8134 129.2 45.8134C128.655 45.8134 128.1 45.8553 127.534 45.9391C126.958 46.0229 126.277 46.1591 125.48 46.3477L125.187 44.6189C126.79 44.2731 128.278 44.095 129.661 44.095C130.562 44.095 131.296 44.1998 131.861 44.4198C132.427 44.6398 132.846 44.9751 133.129 45.4466C133.412 45.9286 133.548 46.5468 133.548 47.3222V50.6018H131.107V49.774C130.573 50.1093 129.996 50.3713 129.357 50.5494C128.718 50.7275 128.121 50.8218 127.576 50.8218ZM127.209 48.59C127.209 48.7786 127.304 48.9253 127.503 49.0406C127.702 49.1558 127.995 49.2082 128.393 49.2082C128.739 49.2082 129.179 49.1558 129.724 49.0511C130.248 48.9463 130.719 48.831 131.107 48.6948V48.1709C130.552 48.0766 130.08 48.0137 129.693 47.9718C129.305 47.9299 128.938 47.909 128.582 47.909C128.079 47.909 127.723 47.9613 127.524 48.0661C127.314 48.1709 127.209 48.349 127.209 48.59Z" fill="black"/>
</g>
<defs>
<clipPath id="clip0_5_83">
<rect width="143.727" height="51" fill="white"/>
</clipPath>
</defs>
</svg>
