<svg width="183" height="65" viewBox="0 0 183 65" fill="none" xmlns="http://www.w3.org/2000/svg">
<g clip-path="url(#clip0_1_18)">
<path d="M-0.00297546 12.6966H12.1577L21.1372 40.5072L32.0151 12.6966H47.9728L58.8508 40.5072L67.8302 12.6966H79.9909L67.7789 49.5379H50.4358L40.0196 22.3944L29.6035 49.5379H12.209L-0.00297546 12.6966Z" fill="white"/>
<path d="M79.9396 12.6966H91.9977V26.0375H114.061V12.6966H126.12V49.5379H114.061V36.1458H91.9977V49.5379H79.9396V12.6966Z" fill="white"/>
<path d="M149.877 50.564C142.18 50.564 136.33 49.5378 132.38 47.4854C128.429 45.4329 126.325 42.0464 126.068 37.3771H138.588C138.588 40.3531 142.18 41.8412 149.363 41.8412C151.98 41.8412 154.033 41.7385 155.418 41.482C156.804 41.2254 157.778 40.9176 158.292 40.4558C158.805 40.0453 159.061 39.4809 159.061 38.7625C159.061 37.9928 158.805 37.3771 158.343 36.9666C157.83 36.6074 156.906 36.2996 155.521 36.0943C154.135 35.8891 151.878 35.6838 148.748 35.4786L146.952 35.376C142.18 35.1194 138.332 34.5037 135.356 33.5801C132.38 32.6565 130.173 31.3224 128.788 29.6291C127.351 27.9359 126.633 25.7808 126.633 23.164C126.633 19.4696 128.48 16.6475 132.174 14.6976C135.817 12.7991 140.897 11.8242 147.362 11.8242C154.597 11.8242 160.087 12.9018 163.936 15.0055C167.784 17.1606 169.785 20.2905 170.042 24.3954H157.522C157.522 23.01 156.701 22.0351 155.059 21.4194C153.417 20.855 150.8 20.5471 147.26 20.5471C144.181 20.5471 142.077 20.7523 140.897 21.2141C139.717 21.6759 139.153 22.2917 139.153 23.164C139.153 23.831 139.409 24.3954 139.871 24.7546C140.333 25.1138 141.256 25.4216 142.642 25.6782C143.976 25.9347 146.028 26.14 148.799 26.3452L150.903 26.4992C155.777 26.8583 159.677 27.3715 162.499 27.9872C165.321 28.6542 167.528 29.7831 169.17 31.3737C170.76 32.9644 171.581 35.2734 171.581 38.3007C171.581 42.7648 169.785 45.8947 166.142 47.7419C162.499 49.6404 157.06 50.564 149.877 50.564Z" fill="white"/>
<path fill-rule="evenodd" clip-rule="evenodd" d="M176.095 24.3833H172.834C172.834 20.3872 172.107 16.7899 169.773 14.2146C167.419 11.6165 163.482 10.1415 157.308 10.1415V6.88004C164.722 6.88004 169.363 8.90469 172.19 12.0246C175.038 15.1677 176.095 19.5062 176.095 24.3833Z" fill="#FF3A3A"/>
<path fill-rule="evenodd" clip-rule="evenodd" d="M182.645 24.3827H179.383C179.383 18.2816 177.808 12.9726 174.236 9.20822C170.653 5.4305 165.095 3.26049 157.308 3.26049V-0.000732422C166.211 -0.000732422 172.505 2.64488 176.603 6.9631C180.712 11.2951 182.645 17.3624 182.645 24.3827Z" fill="#FF3A3A"/>
<path d="M126.879 60.4295C126.879 59.7634 126.732 59.2972 126.439 59.0174C126.146 58.751 125.693 58.6178 125.067 58.6178C123.669 58.6178 122.963 59.2039 122.963 60.3895V64.3326H119.859V60.4295C119.859 59.7501 119.712 59.2838 119.432 59.0174C119.139 58.751 118.686 58.6178 118.06 58.6178C116.662 58.6178 115.956 59.2039 115.956 60.3895V64.3326H112.838V56.3265H115.956V57.6453C116.875 56.593 118.034 56.0601 119.459 56.0601C120.192 56.0601 120.844 56.22 121.404 56.5397C121.963 56.8727 122.376 57.3789 122.643 58.0583C123.109 57.4056 123.655 56.9127 124.295 56.5663C124.921 56.2333 125.64 56.0601 126.466 56.0601C127.492 56.0601 128.331 56.3665 128.997 56.9926C129.65 57.632 129.983 58.6045 129.983 59.9233V64.3326H126.879V60.4295Z" fill="white"/>
<path d="M136.35 64.599C135.165 64.599 134.126 64.4258 133.233 64.0794C132.341 63.7331 131.648 63.2402 131.168 62.5875C130.689 61.9481 130.449 61.2021 130.449 60.3362C130.449 59.4703 130.689 58.711 131.168 58.0583C131.634 57.4189 132.314 56.926 133.193 56.5796C134.072 56.2333 135.098 56.0601 136.27 56.0601C138.149 56.0601 139.601 56.4731 140.626 57.3123C141.652 58.1515 142.158 59.3638 142.158 60.949H133.619C133.872 61.9481 134.832 62.4543 136.47 62.4543C137.109 62.4543 137.669 62.361 138.135 62.1878C138.601 62.028 138.921 61.7882 139.081 61.4951H142.092C141.759 62.5475 141.146 63.3201 140.227 63.8263C139.307 64.3459 138.015 64.599 136.35 64.599ZM138.974 59.4703C138.801 59.0307 138.495 58.6977 138.069 58.4979C137.629 58.3114 137.07 58.2048 136.39 58.2048C135.657 58.2048 135.058 58.3114 134.605 58.5112C134.152 58.711 133.846 59.0307 133.686 59.4703H138.974Z" fill="white"/>
<path d="M151.017 62.774C150.631 63.3601 150.098 63.8131 149.432 64.1328C148.752 64.4525 147.993 64.6123 147.127 64.6123C146.181 64.6123 145.342 64.4391 144.636 64.0795C143.917 63.7331 143.357 63.2402 142.971 62.6008C142.585 61.9614 142.385 61.2154 142.385 60.3496C142.385 59.497 142.585 58.751 142.971 58.0983C143.357 57.4455 143.917 56.9527 144.636 56.593C145.342 56.2466 146.181 56.0735 147.127 56.0735C147.993 56.0735 148.752 56.2333 149.432 56.553C150.098 56.8727 150.631 57.3257 151.017 57.9251V53.6757H154.107V64.3326H151.017V62.774ZM145.608 60.3496C145.608 60.8691 145.835 61.282 146.288 61.5884C146.741 61.8948 147.367 62.0547 148.179 62.0547C149.059 62.0547 149.751 61.8948 150.258 61.5884C150.764 61.282 151.017 60.8691 151.017 60.3496C151.017 59.83 150.764 59.4038 150.258 59.0974C149.751 58.791 149.059 58.6311 148.179 58.6311C147.367 58.6311 146.741 58.791 146.288 59.0974C145.835 59.4038 145.608 59.83 145.608 60.3496Z" fill="white"/>
<path d="M154.867 56.3266H157.944V64.3326H154.867V56.3266ZM154.867 53.6757H157.944V55.514H154.867V53.6757Z" fill="white"/>
<path d="M162.193 64.6123C161.088 64.6123 160.195 64.3858 159.529 63.9329C158.836 63.4933 158.503 62.8273 158.503 61.9347C158.503 60.949 158.93 60.243 159.796 59.8167C160.648 59.4037 161.727 59.1906 163.046 59.1906C164.325 59.1906 165.537 59.3371 166.683 59.6302C166.669 59.124 166.469 58.7643 166.083 58.5512C165.697 58.3514 165.084 58.2448 164.258 58.2448C163.565 58.2448 162.859 58.2981 162.14 58.4046C161.407 58.5112 160.542 58.6844 159.529 58.9242L159.156 56.7262C161.194 56.2866 163.086 56.0601 164.844 56.0601C165.99 56.0601 166.922 56.1933 167.642 56.4731C168.361 56.7528 168.894 57.1791 169.254 57.7785C169.613 58.3913 169.786 59.1773 169.786 60.163V64.3326H166.683V63.2802C166.003 63.7065 165.271 64.0395 164.458 64.2659C163.645 64.4924 162.886 64.6123 162.193 64.6123ZM161.727 61.7749C161.727 62.0147 161.847 62.2012 162.1 62.3477C162.353 62.4942 162.726 62.5608 163.232 62.5608C163.672 62.5608 164.232 62.4942 164.924 62.361C165.59 62.2278 166.19 62.0813 166.683 61.9081V61.242C165.977 61.1222 165.377 61.0422 164.884 60.9889C164.391 60.9357 163.925 60.909 163.472 60.909C162.833 60.909 162.38 60.9756 162.127 61.1088C161.86 61.242 161.727 61.4685 161.727 61.7749Z" fill="white"/>
</g>
<defs>
<clipPath id="clip0_1_18">
<rect width="182.727" height="64.8387" fill="white"/>
</clipPath>
</defs>
</svg>
