<?xml version="1.0" encoding="UTF-8" standalone="no"?>
<!DOCTYPE svg PUBLIC "-//W3C//DTD SVG 1.1//EN" "http://www.w3.org/Graphics/SVG/1.1/DTD/svg11.dtd">
<svg width="100%" height="100%" viewBox="0 0 672 238" version="1.1" xmlns="http://www.w3.org/2000/svg" xmlns:xlink="http://www.w3.org/1999/xlink" xml:space="preserve" xmlns:serif="http://www.serif.com/" style="fill-rule:evenodd;clip-rule:evenodd;stroke-linejoin:round;stroke-miterlimit:1.5;">
    <g transform="matrix(1,0,0,1,-207.008,-418.654)">
        <g transform="matrix(1.10587,0,0,1.10587,-58.3723,-63.7267)">
            <g transform="matrix(14.2259,0,0,14.2259,-1840.26,-4835.94)">
                <g transform="matrix(12,0,0,12,145.64,382.187)">
                    <path d="M0.049,-0.718L0.286,-0.718L0.461,-0.176L0.673,-0.718L0.984,-0.718L1.196,-0.176L1.371,-0.718L1.608,-0.718L1.37,-0L1.032,-0L0.829,-0.529L0.626,-0L0.287,-0L0.049,-0.718Z" style="fill-rule:nonzero;"/>
                </g>
                <g transform="matrix(12,0,0,12,164.216,382.187)">
                    <path d="M0.059,-0.718L0.294,-0.718L0.294,-0.458L0.724,-0.458L0.724,-0.718L0.959,-0.718L0.959,-0L0.724,-0L0.724,-0.261L0.294,-0.261L0.294,-0L0.059,-0L0.059,-0.718Z" style="fill-rule:nonzero;"/>
                </g>
                <g transform="matrix(12,0,0,12,175.124,382.187)">
                    <path d="M0.513,0.02C0.363,0.02 0.249,0 0.172,-0.04C0.095,-0.08 0.054,-0.146 0.049,-0.237L0.293,-0.237C0.293,-0.179 0.363,-0.15 0.503,-0.15C0.554,-0.15 0.594,-0.152 0.621,-0.157C0.648,-0.162 0.667,-0.168 0.677,-0.177C0.687,-0.185 0.692,-0.196 0.692,-0.21C0.692,-0.225 0.687,-0.237 0.678,-0.245C0.668,-0.252 0.65,-0.258 0.623,-0.262C0.596,-0.266 0.552,-0.27 0.491,-0.274L0.456,-0.276C0.363,-0.281 0.288,-0.293 0.23,-0.311C0.172,-0.329 0.129,-0.355 0.102,-0.388C0.074,-0.421 0.06,-0.463 0.06,-0.514C0.06,-0.586 0.096,-0.641 0.168,-0.679C0.239,-0.716 0.338,-0.735 0.464,-0.735C0.605,-0.735 0.712,-0.714 0.787,-0.673C0.862,-0.631 0.901,-0.57 0.906,-0.49L0.662,-0.49C0.662,-0.517 0.646,-0.536 0.614,-0.548C0.582,-0.559 0.531,-0.565 0.462,-0.565C0.402,-0.565 0.361,-0.561 0.338,-0.552C0.315,-0.543 0.304,-0.531 0.304,-0.514C0.304,-0.501 0.309,-0.49 0.318,-0.483C0.327,-0.476 0.345,-0.47 0.372,-0.465C0.398,-0.46 0.438,-0.456 0.492,-0.452L0.533,-0.449C0.628,-0.442 0.704,-0.432 0.759,-0.42C0.814,-0.407 0.857,-0.385 0.889,-0.354C0.92,-0.323 0.936,-0.278 0.936,-0.219C0.936,-0.132 0.901,-0.071 0.83,-0.035C0.759,0.002 0.653,0.02 0.513,0.02Z" style="fill-rule:nonzero;"/>
                </g>
            </g>
            <g transform="matrix(1,0,0,1,11.0143,-0.189544)">
                <path d="M809.4,517.515C809.4,487.994 797.527,464.708 752.321,464.708" style="fill:none;stroke:rgb(255,58,58);stroke-width:10.85px;"/>
            </g>
            <g transform="matrix(1,0,0,1.47881,32.8041,-247.983)">
                <path d="M809.4,517.515C809.4,487.994 786.057,466.327 730.531,466.327" style="fill:none;stroke:rgb(255,58,58);stroke-width:8.6px;"/>
            </g>
            <g transform="matrix(1,0,0,1,-52.6994,-22.991)">
                <g transform="matrix(44.3192,0,0,44.3192,665.515,673.227)">
                    <path d="M1.112,-0.293C1.112,-0.343 1.101,-0.378 1.079,-0.399C1.057,-0.419 1.023,-0.429 0.976,-0.429C0.871,-0.429 0.818,-0.385 0.818,-0.296L0.818,-0L0.585,-0L0.585,-0.293C0.585,-0.344 0.574,-0.379 0.553,-0.399C0.531,-0.419 0.497,-0.429 0.45,-0.429C0.345,-0.429 0.292,-0.385 0.292,-0.296L0.292,-0L0.058,-0L0.058,-0.601L0.292,-0.601L0.292,-0.502C0.361,-0.581 0.448,-0.621 0.555,-0.621C0.61,-0.621 0.659,-0.609 0.701,-0.585C0.743,-0.56 0.774,-0.522 0.794,-0.471C0.829,-0.52 0.87,-0.557 0.918,-0.583C0.965,-0.608 1.019,-0.621 1.081,-0.621C1.158,-0.621 1.221,-0.598 1.271,-0.551C1.32,-0.503 1.345,-0.43 1.345,-0.331L1.345,-0L1.112,-0L1.112,-0.293Z" style="fill:rgb(255,58,58);fill-rule:nonzero;"/>
                </g>
                <g transform="matrix(44.3192,0,0,44.3192,724.991,673.227)">
                    <path d="M0.481,0.02C0.392,0.02 0.314,0.007 0.247,-0.019C0.18,-0.045 0.128,-0.082 0.092,-0.131C0.056,-0.179 0.038,-0.235 0.038,-0.3C0.038,-0.365 0.056,-0.422 0.092,-0.471C0.127,-0.519 0.178,-0.556 0.244,-0.582C0.31,-0.608 0.387,-0.621 0.475,-0.621C0.616,-0.621 0.725,-0.59 0.802,-0.527C0.879,-0.464 0.917,-0.373 0.917,-0.254L0.276,-0.254C0.295,-0.179 0.367,-0.141 0.49,-0.141C0.538,-0.141 0.58,-0.148 0.615,-0.161C0.65,-0.173 0.674,-0.191 0.686,-0.213L0.912,-0.213C0.887,-0.134 0.841,-0.076 0.772,-0.038C0.703,0.001 0.606,0.02 0.481,0.02ZM0.678,-0.365C0.665,-0.398 0.642,-0.423 0.61,-0.438C0.577,-0.452 0.535,-0.46 0.484,-0.46C0.429,-0.46 0.384,-0.452 0.35,-0.437C0.316,-0.422 0.293,-0.398 0.281,-0.365L0.678,-0.365Z" style="fill:rgb(255,58,58);fill-rule:nonzero;"/>
                </g>
                <g transform="matrix(44.3192,0,0,44.3192,764.657,673.227)">
                    <path d="M0.687,-0.117C0.658,-0.073 0.618,-0.039 0.568,-0.015C0.517,0.009 0.46,0.021 0.395,0.021C0.324,0.021 0.261,0.008 0.208,-0.019C0.154,-0.045 0.112,-0.082 0.083,-0.13C0.054,-0.178 0.039,-0.234 0.039,-0.299C0.039,-0.363 0.054,-0.419 0.083,-0.468C0.112,-0.517 0.154,-0.554 0.208,-0.581C0.261,-0.607 0.324,-0.62 0.395,-0.62C0.46,-0.62 0.517,-0.608 0.568,-0.584C0.618,-0.56 0.658,-0.526 0.687,-0.481L0.687,-0.8L0.919,-0.8L0.919,-0L0.687,-0L0.687,-0.117ZM0.281,-0.299C0.281,-0.26 0.298,-0.229 0.332,-0.206C0.366,-0.183 0.413,-0.171 0.474,-0.171C0.54,-0.171 0.592,-0.183 0.63,-0.206C0.668,-0.229 0.687,-0.26 0.687,-0.299C0.687,-0.338 0.668,-0.37 0.63,-0.393C0.592,-0.416 0.54,-0.428 0.474,-0.428C0.413,-0.428 0.366,-0.416 0.332,-0.393C0.298,-0.37 0.281,-0.338 0.281,-0.299Z" style="fill:rgb(255,58,58);fill-rule:nonzero;"/>
                </g>
                <g transform="matrix(44.3192,0,0,44.3192,805.298,673.227)">
                    <path d="M0.059,-0.601L0.29,-0.601L0.29,-0L0.059,-0L0.059,-0.601ZM0.059,-0.8L0.29,-0.8L0.29,-0.662L0.059,-0.662L0.059,-0.8Z" style="fill:rgb(255,58,58);fill-rule:nonzero;"/>
                </g>
                <g transform="matrix(44.3192,0,0,44.3192,818.062,673.227)">
                    <path d="M0.321,0.021C0.238,0.021 0.171,0.004 0.121,-0.03C0.069,-0.063 0.044,-0.113 0.044,-0.18C0.044,-0.254 0.076,-0.307 0.141,-0.339C0.205,-0.37 0.286,-0.386 0.385,-0.386C0.481,-0.386 0.572,-0.375 0.658,-0.353C0.657,-0.391 0.642,-0.418 0.613,-0.434C0.584,-0.449 0.538,-0.457 0.476,-0.457C0.424,-0.457 0.371,-0.453 0.317,-0.445C0.262,-0.437 0.197,-0.424 0.121,-0.406L0.093,-0.571C0.246,-0.604 0.388,-0.621 0.52,-0.621C0.606,-0.621 0.676,-0.611 0.73,-0.59C0.784,-0.569 0.824,-0.537 0.851,-0.492C0.878,-0.446 0.891,-0.387 0.891,-0.313L0.891,-0L0.658,-0L0.658,-0.079C0.607,-0.047 0.552,-0.022 0.491,-0.005C0.43,0.012 0.373,0.021 0.321,0.021ZM0.286,-0.192C0.286,-0.174 0.295,-0.16 0.314,-0.149C0.333,-0.138 0.361,-0.133 0.399,-0.133C0.432,-0.133 0.474,-0.138 0.526,-0.148C0.576,-0.158 0.621,-0.169 0.658,-0.182L0.658,-0.232C0.605,-0.241 0.56,-0.247 0.523,-0.251C0.486,-0.255 0.451,-0.257 0.417,-0.257C0.369,-0.257 0.335,-0.252 0.316,-0.242C0.296,-0.232 0.286,-0.215 0.286,-0.192Z" style="fill:rgb(255,58,58);fill-rule:nonzero;"/>
                </g>
            </g>
        </g>
    </g>
</svg>
